<svg width="150" height="24" viewBox="0 0 150 24" fill="none" xmlns="http://www.w3.org/2000/svg">
<path d="M34.8456 19.5243C33.0376 19.5243 31.5255 18.9163 30.3094 17.7003C29.1094 16.4683 28.5094 14.9724 28.5094 13.2125C28.5094 11.4205 29.1094 9.92454 30.3094 8.72467C31.5254 7.50867 33.0375 6.90067 34.8456 6.90067C36.0136 6.90067 37.0776 7.18067 38.0376 7.74067C38.9976 8.30067 39.7176 9.05267 40.1976 9.99667L37.9656 11.2927C37.6936 10.7167 37.2776 10.2687 36.7176 9.94867C36.1736 9.61267 35.5416 9.44467 34.8216 9.44467C33.7656 9.44467 32.8776 9.80467 32.1576 10.5247C31.4536 11.2607 31.1016 12.1567 31.1016 13.2127C31.1016 14.2687 31.4536 15.1647 32.1576 15.9007C32.8776 16.6207 33.7656 16.9807 34.8216 16.9807C35.5256 16.9807 36.1576 16.8207 36.7176 16.5007C37.2936 16.1647 37.7256 15.7087 38.0136 15.1327L40.2456 16.4047C39.7336 17.3647 38.9896 18.1247 38.0136 18.6847C37.0536 19.2447 35.9976 19.5247 34.8456 19.5247V19.5243Z" fill="#0F172A"/>
<path d="M48.4281 6.9003C49.8201 6.9003 50.9321 7.3483 51.7641 8.2443C52.6121 9.1243 53.0361 10.3243 53.0361 11.8443V19.2121H50.4441V12.1081C50.4441 11.2121 50.2041 10.5241 49.7241 10.0441C49.2441 9.56411 48.5881 9.32411 47.7561 9.32411C46.8121 9.32411 46.0681 9.62011 45.5241 10.2121C44.9801 10.7881 44.7081 11.6441 44.7081 12.7801V19.2121H42.1161V2.41211H44.7081V8.74811C45.5081 7.51611 46.7481 6.90011 48.4281 6.90011V6.9003Z" fill="#0F172A"/>
<path d="M65.3263 8.91629V7.21229H67.9183V19.2123H65.3263V17.4843C64.3503 18.8443 62.9504 19.5243 61.1265 19.5243C59.4785 19.5243 58.0705 18.9163 56.9025 17.7003C55.7345 16.4843 55.1505 14.9884 55.1505 13.2125C55.1505 11.4366 55.7345 9.94067 56.9025 8.72467C58.0705 7.50867 59.4785 6.90067 61.1265 6.90067C62.9505 6.90067 64.3505 7.57267 65.3263 8.91667V8.91629ZM58.8225 15.9723C59.5425 16.6923 60.4465 17.0523 61.5345 17.0523C62.6225 17.0523 63.5265 16.6923 64.2465 15.9723C64.9665 15.2363 65.3265 14.3163 65.3265 13.2123C65.3265 12.1083 64.9665 11.1963 64.2465 10.4763C63.5265 9.74029 62.6225 9.37229 61.5345 9.37229C60.4465 9.37229 59.5425 9.74029 58.8225 10.4763C58.1025 11.1963 57.7425 12.1083 57.7425 13.2123C57.7425 14.3003 58.1025 15.2203 58.8225 15.9723Z" fill="#0F172A"/>
<path d="M76.0791 13.0923L81.5511 19.2121H78.4551L73.5349 13.6683V19.2121H70.9429V2.41211H73.5349V12.5159L78.1909 7.21173H81.3589L76.0791 13.0923Z" fill="#0F172A"/>
<path d="M85.8945 7.21212V9.22812C86.5505 7.74012 87.7825 6.99612 89.5905 6.99612V9.80412C88.6145 9.74012 87.7505 9.98012 86.9985 10.5241C86.2625 11.0521 85.8945 11.9321 85.8945 13.1641V19.2121H83.3025V7.21212H85.8945Z" fill="#0F172A"/>
<path d="M100.461 8.91629V7.21229H103.053V19.2123H100.461V17.4843C99.4848 18.8443 98.0849 19.5243 96.261 19.5243C94.613 19.5243 93.205 18.9163 92.037 17.7003C90.869 16.4843 90.285 14.9884 90.285 13.2125C90.285 11.4366 90.869 9.94067 92.037 8.72467C93.205 7.50867 94.613 6.90067 96.261 6.90067C98.085 6.90067 99.485 7.57267 100.461 8.91667V8.91629ZM93.957 15.9723C94.677 16.6923 95.581 17.0523 96.669 17.0523C97.757 17.0523 98.661 16.6923 99.381 15.9723C100.101 15.2363 100.461 14.3163 100.461 13.2123C100.461 12.1083 100.101 11.1963 99.381 10.4763C98.661 9.74029 97.757 9.37229 96.669 9.37229C95.581 9.37229 94.677 9.74029 93.957 10.4763C93.237 11.1963 92.877 12.1083 92.877 13.2123C92.877 14.3003 93.237 15.2203 93.957 15.9723Z" fill="#0F172A"/>
<path opacity="0.999" d="M141.42 5.63956H115.095C112.886 5.63956 111.095 7.4304 111.095 9.63951V16.3724C111.095 18.5815 112.886 20.3724 115.095 20.3724H141.42C143.629 20.3724 145.42 18.5815 145.42 16.3724V9.63951C145.42 7.4304 143.629 5.63956 141.42 5.63956Z" stroke="#0F172A" stroke-width="1.5"/>
<path d="M119.655 16.7394H117.831L115.324 9.27283H116.924L118.748 15.0115L120.561 9.27283H122.172L119.655 16.7394Z" fill="#0F172A"/>
<path d="M122.885 16.7394V9.27283H124.357V16.7394H122.885Z" fill="#0F172A"/>
<path d="M127.215 13.6565V15.3311H130.361V16.7391H125.743V9.27252H130.308V10.6805H127.215V12.2698H130.042V13.6565H127.215Z" fill="#0F172A"/>
<path d="M134.625 16.7394H132.95L130.859 9.27283H132.406L133.835 14.8088L135.393 9.27283H136.651L138.219 14.8088L139.649 9.27283H141.195L139.105 16.7394H137.43L136.022 11.8115L134.625 16.7394Z" fill="#0F172A"/>
<path d="M23 12.5C23 14.2397 18.299 15.65 12.5 15.65C6.70101 15.65 2 14.2397 2 12.5C2 10.7603 6.70101 9.35 12.5 9.35C18.299 9.35 23 10.7603 23 12.5Z" fill="url(#paint0_linear)" fill-opacity="0.9"/>
<path d="M11.975 2C13.7147 2 15.125 6.70101 15.125 12.5C15.125 18.299 13.7147 23 11.975 23C10.2353 23 8.825 18.299 8.825 12.5C8.825 6.70101 10.2353 2 11.975 2Z" fill="url(#paint1_linear)" fill-opacity="0.9"/>
<path d="M19.9246 19.9246C18.6944 21.1548 14.3731 18.8279 10.2726 14.7274C6.17208 10.6269 3.8452 6.30553 5.07535 5.07538C6.3055 3.84523 10.6268 6.17211 14.7274 10.2726C18.8279 14.3731 21.1547 18.6945 19.9246 19.9246Z" fill="url(#paint2_linear)" fill-opacity="0.9"/>
<path d="M19.5534 4.70415C20.7835 5.9343 18.4566 10.2556 14.3561 14.3562C10.2556 18.4567 5.93427 20.7835 4.70412 19.5534C3.47396 18.3232 5.80085 14.0019 9.90135 9.90138C14.0019 5.80088 18.3232 3.474 19.5534 4.70415Z" fill="url(#paint3_linear)" fill-opacity="0.9"/>
<defs>
<linearGradient id="paint0_linear" x1="20.9" y1="3.8375" x2="4.8875" y2="19.325" gradientUnits="userSpaceOnUse">
<stop stop-color="#FBBF24"/>
<stop offset="0.635417" stop-color="#F5661E"/>
</linearGradient>
<linearGradient id="paint1_linear" x1="20.9" y1="3.8375" x2="4.8875" y2="19.325" gradientUnits="userSpaceOnUse">
<stop stop-color="#FBBF24"/>
<stop offset="0.635417" stop-color="#F5661E"/>
</linearGradient>
<linearGradient id="paint2_linear" x1="20.9" y1="3.8375" x2="4.8875" y2="19.325" gradientUnits="userSpaceOnUse">
<stop stop-color="#FBBF24"/>
<stop offset="0.635417" stop-color="#F5661E"/>
</linearGradient>
<linearGradient id="paint3_linear" x1="20.9" y1="3.8375" x2="4.8875" y2="19.325" gradientUnits="userSpaceOnUse">
<stop stop-color="#FBBF24"/>
<stop offset="0.635417" stop-color="#F5661E"/>
</linearGradient>
</defs>
</svg>
