<?xml version="1.0" standalone="no"?>
<!DOCTYPE svg PUBLIC "-//W3C//DTD SVG 20010904//EN"
 "http://www.w3.org/TR/2001/REC-SVG-20010904/DTD/svg10.dtd">
<svg version="1.0" xmlns="http://www.w3.org/2000/svg"
 width="700.000000pt" height="700.000000pt" viewBox="0 0 700.000000 700.000000"
 preserveAspectRatio="xMidYMid meet">
<metadata>
Created by potrace 1.14, written by Peter Selinger 2001-2017
</metadata>
<g transform="translate(0.000000,700.000000) scale(0.100000,-0.100000)"
fill="#000000" stroke="none">
<path d="M3375 6985 c-82 -21 -132 -42 -191 -81 -30 -20 -218 -199 -417 -398
l-361 -361 -520 -1 c-557 0 -576 -2 -686 -52 -180 -81 -309 -249 -336 -438 -4
-27 -8 -277 -8 -555 l-1 -505 -367 -367 c-245 -246 -378 -386 -402 -425 -53
-88 -78 -173 -81 -277 -5 -138 25 -243 97 -351 15 -23 191 -205 390 -404 l363
-363 1 -516 c1 -376 4 -532 14 -576 49 -230 233 -407 470 -451 19 -3 267 -7
550 -7 l515 -1 349 -348 c385 -385 406 -404 491 -446 184 -92 391 -79 571 34
28 17 214 195 414 395 l363 364 506 1 c278 1 528 4 555 8 240 34 428 219 482
476 4 19 8 267 8 551 l1 516 361 360 c199 199 378 387 399 419 65 97 89 181
89 309 0 156 -33 254 -123 365 -20 24 -191 199 -381 389 l-345 344 -1 521 c0
570 -1 578 -59 701 -73 154 -213 269 -378 312 -53 14 -136 16 -588 17 l-525 1
-345 345 c-190 190 -365 362 -390 382 -58 46 -125 83 -191 103 -69 21 -228 27
-293 10z"/>
</g>
</svg>
